<svg width="70" height="65" viewBox="0 0 70 65" fill="none" xmlns="http://www.w3.org/2000/svg">
<path d="M35 61.6159C52.3165 61.6159 66.3542 48.5808 66.3542 32.5013C66.3542 16.4218 52.3165 3.38672 35 3.38672C17.6836 3.38672 3.64587 16.4218 3.64587 32.5013C3.64587 48.5808 17.6836 61.6159 35 61.6159Z" stroke="#F8F8F8" stroke-width="1.45833" stroke-linecap="round" stroke-linejoin="round"/>
<path d="M47.075 40.2173C48.6981 39.6079 51.5841 38.7981 52.4533 39.7758C53.3925 40.8335 52.2054 43.1301 51.1116 44.9136" stroke="#F8F8F8" stroke-width="1.45833" stroke-linecap="round" stroke-linejoin="round"/>
<path d="M17.2054 40.9283C19.7706 42.8201 27.3466 45.7153 35.417 45.7153C40.7122 45.8311 45.9082 44.3695 50.2439 41.5444M29.7558 27.2539V31.7227C29.7558 32.441 30.0631 33.1298 30.6101 33.6377C31.157 34.1456 31.8989 34.431 32.6725 34.431C33.446 34.431 34.1879 34.1456 34.7349 33.6377C35.2818 33.1298 35.5891 32.441 35.5891 31.7227M35.5891 31.7227V27.2539M35.5891 31.7227V34.431M15.1666 30.0977C15.1666 29.3794 15.4739 28.6905 16.0209 28.1826C16.5679 27.6747 17.3097 27.3893 18.0833 27.3893C18.8568 27.3893 19.5987 27.6747 20.1457 28.1826C20.6927 28.6905 21 29.3794 21 30.0977M21 30.0977V34.431M21 30.0977C21 29.3794 21.3073 28.6905 21.8542 28.1826C22.4012 27.6747 23.1431 27.3893 23.9166 27.3893C24.6902 27.3893 25.432 27.6747 25.979 28.1826C26.526 28.6905 26.8333 29.3794 26.8333 30.0977V34.431M15.1666 27.3893V34.431" stroke="#F8F8F8" stroke-width="1.45833" stroke-linecap="round" stroke-linejoin="round"/>
<path d="M46.4917 24.8841C47.0554 24.8841 47.5125 24.4597 47.5125 23.9362C47.5125 23.4127 47.0554 22.9883 46.4917 22.9883C45.9279 22.9883 45.4708 23.4127 45.4708 23.9362C45.4708 24.4597 45.9279 24.8841 46.4917 24.8841Z" fill="#F8F8F8"/>
<path d="M46.4916 27.2522V34.4293M38.7041 33.8172C39.3877 34.3038 40.2499 34.5212 41.1046 34.4225H41.7579C42.2697 34.4218 42.7603 34.2324 43.1218 33.8959C43.4833 33.5595 43.6862 33.1035 43.6858 32.6282V32.6282C43.6862 32.153 43.4833 31.697 43.1218 31.3605C42.7603 31.0241 42.2697 30.8347 41.7579 30.834H40.4498C40.1963 30.8338 39.9453 30.7872 39.7112 30.6969C39.4771 30.6067 39.2644 30.4744 39.0854 30.3078C38.9064 30.1412 38.7644 29.9434 38.6677 29.7258C38.571 29.5082 38.5215 29.2751 38.5219 29.0397V29.0397C38.5215 28.8043 38.571 28.5712 38.6677 28.3536C38.7644 28.136 38.9064 27.9382 39.0854 27.7716C39.2644 27.605 39.4771 27.4727 39.7112 27.3824C39.9453 27.2922 40.1963 27.2456 40.4498 27.2454H41.1046C41.9585 27.148 42.8194 27.3658 43.5021 27.8521M54.8333 33.0656C54.578 33.4801 54.2092 33.8245 53.7644 34.064C53.3195 34.3035 52.8144 34.4295 52.3002 34.4293C51.5266 34.4293 50.7848 34.1439 50.2378 33.636C49.6908 33.1281 49.3835 32.4392 49.3835 31.7209V29.9605C49.3835 29.2422 49.6908 28.5534 50.2378 28.0454C50.7848 27.5375 51.5266 27.2522 52.3002 27.2522C52.8135 27.2519 53.3178 27.3775 53.7621 27.6162C54.2064 27.8549 54.5749 28.1984 54.8304 28.6118" stroke="#F8F8F8" stroke-width="1.45833" stroke-linecap="round" stroke-linejoin="round"/>
</svg>
