<svg width="170" height="50" viewBox="0 0 170 50" fill="none" xmlns="http://www.w3.org/2000/svg">
<g clip-path="url(#clip0_4_35)">
<path d="M26.4479 0C11.8416 0 0 11.1447 0 24.8919C0 38.6397 11.8416 49.7834 26.4479 49.7834C41.056 49.7834 52.8962 38.6397 52.8962 24.8919C52.8962 11.1456 41.056 0.00125 26.4476 0.00125L26.4479 0ZM38.577 35.9013C38.4642 36.0753 38.3159 36.2267 38.1408 36.3468C37.9657 36.4669 37.7671 36.5533 37.5565 36.6011C37.3459 36.6489 37.1273 36.6571 36.9133 36.6253C36.6993 36.5934 36.494 36.5222 36.3093 36.4156C30.0996 32.8456 22.2823 32.0372 13.0761 34.0169C12.6498 34.1081 12.2024 34.0363 11.8324 33.8173C11.4623 33.5983 11.1997 33.2499 11.1025 32.8488C11.054 32.6501 11.0476 32.4445 11.0837 32.2435C11.1198 32.0426 11.1977 31.8503 11.3128 31.6778C11.428 31.5052 11.5782 31.3557 11.7549 31.2378C11.9315 31.12 12.1311 31.0361 12.3423 30.9909C22.4171 28.8244 31.0589 29.7572 38.0305 33.7672C38.2154 33.8735 38.3762 34.0131 38.5037 34.1779C38.6312 34.3427 38.7229 34.5296 38.7736 34.7278C38.8244 34.9261 38.8331 35.1317 38.7993 35.3331C38.7655 35.5345 38.6899 35.7277 38.5767 35.9016L38.577 35.9013ZM41.8144 29.1234C41.217 30.0366 39.9477 30.325 38.9778 29.7631C31.869 25.6506 21.0319 24.4594 12.6232 26.8619C12.0997 27.011 11.5348 26.9586 11.0524 26.7161C10.57 26.4737 10.2095 26.0611 10.0499 25.5688C9.89214 25.0762 9.94826 24.5449 10.206 24.0912C10.4637 23.6375 10.902 23.2985 11.4249 23.1484C21.0302 20.4053 32.971 21.7341 41.135 26.4556C42.1045 27.0175 42.411 28.2125 41.814 29.1238L41.8144 29.1234ZM42.0919 22.0656C33.5684 17.3006 19.5042 16.8625 11.3658 19.1875C10.0589 19.5606 8.67697 18.8663 8.28119 17.6363C8.09079 17.0454 8.15748 16.4075 8.46661 15.8629C8.77574 15.3182 9.30201 14.9114 9.92973 14.7319C19.2721 12.0625 34.8029 12.5781 44.6167 18.0616C44.8964 18.2173 45.1407 18.4234 45.3356 18.6682C45.5305 18.9129 45.6722 19.1914 45.7526 19.4878C45.833 19.7841 45.8505 20.0925 45.804 20.3952C45.7576 20.6979 45.6481 20.989 45.482 21.2519C44.7874 22.3581 43.265 22.7228 42.0933 22.0659H42.0919V22.0656ZM71.9562 22.9788C67.3894 21.9538 66.5779 21.2347 66.5779 19.7231C66.5779 18.295 68.0053 17.3341 70.1306 17.3341C72.1899 17.3341 74.2302 18.0641 76.3715 19.5663C76.4346 19.6116 76.5166 19.6297 76.5956 19.6178C76.6354 19.6125 76.6736 19.5995 76.7078 19.5798C76.7421 19.5601 76.7717 19.534 76.7948 19.5031L79.0244 16.545C79.0685 16.4864 79.0872 16.4141 79.0766 16.343C79.0661 16.2719 79.0271 16.2072 78.9677 16.1622C76.419 14.2381 73.5512 13.3028 70.1971 13.3028C65.2671 13.3028 61.8216 16.0875 61.8216 20.0722C61.8216 24.345 64.7932 25.8581 69.9288 27.0259C74.2966 27.9731 75.0354 28.7666 75.0354 30.1853C75.0354 31.7578 73.5446 32.7356 71.1447 32.7356C68.4791 32.7356 66.303 31.8888 63.8712 29.9088C63.8106 29.8606 63.7326 29.8362 63.6534 29.8406C63.6139 29.8432 63.5754 29.8531 63.5401 29.8699C63.5048 29.8867 63.4734 29.91 63.4478 29.9384L60.9467 32.7384C60.8964 32.7946 60.8713 32.8669 60.8767 32.9401C60.882 33.0133 60.9173 33.0818 60.9752 33.1309C63.8048 35.5091 67.2851 36.7634 71.0434 36.7634C76.3559 36.7634 79.7888 34.0316 79.7888 29.8019C79.7981 26.2328 77.5276 24.2563 71.9658 22.9828L71.9562 22.9788ZM91.809 18.74C89.5067 18.74 87.6181 19.5938 86.0579 21.3431V19.3744C86.0579 19.2188 85.925 19.0922 85.761 19.0922H81.6711C81.592 19.0926 81.5164 19.1225 81.4607 19.1754C81.4051 19.2282 81.374 19.2997 81.3742 19.3741V41.2519C81.3742 41.4063 81.507 41.5341 81.6711 41.5341H85.761C85.8401 41.5335 85.9157 41.5035 85.9713 41.4506C86.0269 41.3977 86.058 41.3263 86.0579 41.2519V34.3466C87.6181 35.9903 89.5067 36.7959 91.8086 36.7959C96.0885 36.7959 100.422 33.6959 100.422 27.7691C100.428 21.8409 96.0945 18.7397 91.812 18.7397L91.8086 18.74H91.809ZM95.6652 27.7691C95.6652 30.7856 93.6913 32.8931 90.8614 32.8931C88.0663 32.8931 85.9566 30.6906 85.9566 27.7691C85.9566 24.8472 88.0663 22.645 90.8614 22.645C93.6438 22.645 95.6652 24.7991 95.6652 27.7688V27.7691ZM111.523 18.74C106.012 18.74 101.694 22.7338 101.694 27.8338C101.694 32.8784 105.983 36.8288 111.456 36.8288C116.986 36.8288 121.316 32.8488 121.316 27.7691C121.316 22.7066 117.015 18.7409 111.523 18.7409V18.74ZM111.523 32.9228C108.592 32.9228 106.381 30.7053 106.381 27.7675C106.381 24.8163 108.516 22.6744 111.456 22.6744C114.406 22.6744 116.629 24.8909 116.629 27.8319C116.629 30.7828 114.482 32.9228 111.523 32.9228ZM133.084 19.0922H128.583V14.7625C128.583 14.6072 128.451 14.4806 128.287 14.4806H124.196C124.117 14.4808 124.041 14.5105 123.984 14.5633C123.928 14.6161 123.896 14.6877 123.896 14.7625V19.0922H121.932C121.853 19.0926 121.777 19.1225 121.721 19.1754C121.666 19.2282 121.635 19.2997 121.635 19.3741V22.6816C121.635 22.756 121.666 22.8275 121.721 22.8804C121.777 22.9333 121.853 22.9633 121.932 22.9638H123.896V31.5231C123.896 34.98 125.725 36.7338 129.335 36.7338C130.8 36.7338 132.016 36.4481 133.162 35.8359C133.209 35.812 133.247 35.7767 133.274 35.7338C133.301 35.6909 133.315 35.6419 133.314 35.5922V32.4413C133.314 32.3936 133.301 32.3467 133.276 32.3051C133.251 32.2636 133.215 32.2287 133.172 32.2038C133.129 32.1778 133.079 32.1629 133.028 32.1608C132.977 32.1587 132.927 32.1693 132.881 32.1916C132.095 32.5634 131.334 32.7356 130.481 32.7356C129.17 32.7356 128.583 32.1738 128.583 30.9194V22.9656H133.083C133.163 22.9652 133.238 22.9353 133.294 22.8823C133.35 22.8294 133.381 22.7579 133.38 22.6834V19.3759C133.382 19.339 133.375 19.3023 133.361 19.2678C133.347 19.2334 133.325 19.2021 133.298 19.1757C133.27 19.1493 133.237 19.1284 133.201 19.1144C133.165 19.1003 133.126 19.0933 133.087 19.0938L133.083 19.0922H133.084ZM148.761 19.1091V18.5772C148.761 17.0128 149.399 16.3153 150.827 16.3153C151.68 16.3153 152.365 16.4747 153.132 16.7153C153.177 16.7295 153.225 16.7334 153.272 16.7266C153.319 16.7199 153.364 16.7026 153.402 16.6764C153.44 16.6502 153.471 16.6157 153.493 16.5758C153.514 16.5359 153.525 16.4918 153.524 16.4472L153.524 13.2044C153.525 13.1438 153.505 13.0846 153.466 13.0358C153.428 12.9871 153.374 12.9513 153.312 12.9341C152.504 12.7072 151.468 12.4747 149.914 12.4747C146.14 12.4747 144.141 14.4763 144.141 18.2609V19.0753H142.176C142.097 19.0755 142.021 19.1052 141.965 19.158C141.908 19.2108 141.877 19.2824 141.876 19.3572V22.6816C141.876 22.8369 142.012 22.9638 142.176 22.9638H144.141V36.1628C144.141 36.3203 144.277 36.4453 144.441 36.4453H148.528C148.695 36.4453 148.828 36.3203 148.828 36.1628V22.9647H152.646L158.495 36.1628C157.832 37.5481 157.178 37.8244 156.287 37.8244C155.567 37.8244 154.806 37.6225 154.033 37.2213C153.959 37.1863 153.875 37.1789 153.796 37.2003C153.757 37.2127 153.721 37.2325 153.69 37.2586C153.66 37.2847 153.635 37.3165 153.619 37.3519L152.232 40.2144C152.2 40.2794 152.196 40.3534 152.22 40.4213C152.244 40.4893 152.295 40.546 152.362 40.58C153.808 41.3172 155.112 41.6322 156.726 41.6322C159.746 41.6322 161.416 40.3066 162.885 36.7456L169.978 19.4944C169.997 19.4517 170.004 19.4054 169.998 19.3597C169.993 19.3139 169.975 19.2702 169.947 19.2325C169.92 19.1947 169.884 19.1638 169.842 19.1424C169.799 19.121 169.752 19.1099 169.703 19.11H165.446C165.384 19.1097 165.323 19.1277 165.272 19.1616C165.221 19.1955 165.182 19.2436 165.162 19.2991L160.8 31.0206L156.025 19.2913C156.004 19.2381 155.966 19.1923 155.916 19.16C155.867 19.1276 155.808 19.1102 155.747 19.11H148.761V19.1091ZM139.672 19.0922H135.582C135.503 19.0925 135.427 19.1223 135.37 19.1751C135.314 19.2279 135.283 19.2994 135.282 19.3741V36.1628C135.282 36.3203 135.418 36.4453 135.582 36.4453H139.672C139.836 36.4453 139.972 36.3203 139.972 36.1628V19.3753C139.972 19.3382 139.965 19.3014 139.949 19.2671C139.934 19.2328 139.912 19.2016 139.884 19.1754C139.857 19.1492 139.823 19.1284 139.787 19.1143C139.75 19.1001 139.711 19.093 139.672 19.0931V19.0922ZM137.651 11.4472C136.03 11.4472 134.717 12.6816 134.717 14.2059C134.717 14.5686 134.793 14.9276 134.94 15.2627C135.087 15.5977 135.303 15.9021 135.576 16.1585C135.848 16.4149 136.172 16.6183 136.528 16.7571C136.884 16.8958 137.265 16.9672 137.651 16.9672C139.271 16.9672 140.581 15.7316 140.581 14.2059C140.581 13.4744 140.272 12.7728 139.723 12.2555C139.173 11.7382 138.428 11.4474 137.651 11.4472Z" fill="#1ED760"/>
</g>
<defs>
<clipPath id="clip0_4_35">
<rect width="170" height="50" fill="white"/>
</clipPath>
</defs>
</svg>
